<svg width="123" height="67" viewBox="0 0 123 67" fill="none" xmlns="http://www.w3.org/2000/svg">
<path d="M122.5 33.5C122.5 42.4817 115.81 50.7235 104.748 56.749C93.7052 62.7641 78.4157 66.5 61.5 66.5C44.5843 66.5 29.2948 62.7641 18.2521 56.749C7.19036 50.7235 0.5 42.4817 0.5 33.5C0.5 24.5183 7.19036 16.2765 18.2521 10.251C29.2948 4.23588 44.5843 0.5 61.5 0.5C78.4157 0.5 93.7052 4.23588 104.748 10.251C115.81 16.2765 122.5 24.5183 122.5 33.5Z" fill="white" stroke="black"/>
<path d="M75.4976 23.0488C75.5246 22.774 75.3236 22.5293 75.0488 22.5024L70.5703 22.0633C70.2954 22.0364 70.0508 22.2373 70.0239 22.5121C69.9969 22.787 70.1979 23.0316 70.4727 23.0585L74.4536 23.4488L74.0633 27.4297C74.0364 27.7046 74.2373 27.9492 74.5121 27.9761C74.787 28.0031 75.0316 27.8021 75.0585 27.5273L75.4976 23.0488ZM47.3174 46.3864L75.3174 23.3864L74.6826 22.6136L46.6826 45.6136L47.3174 46.3864Z" fill="black"/>
</svg>
